<svg height="317" viewBox="0 0 203.605 25.827" width="2500" xmlns="http://www.w3.org/2000/svg"><path d="m55.257 13.53c-3.529 0-5.284 2.596-5.284 6.1 0 3.647 1.686 6.196 5.284 6.196 3.601 0 5.282-2.549 5.282-6.196 0-3.504-1.753-6.1-5.282-6.1m0 9.911c-.938 0-1.355-.842-1.355-3.812 0-2.712.278-3.716 1.355-3.716 1.075 0 1.354 1.004 1.354 3.716 0 2.973-.42 3.812-1.354 3.812m7.722-10.912v1.311h-1.544v2.667h1.544v9.065h3.787v-9.065h2.061v-2.667h-2.061v-1.19c0-.713.36-1.103 1.357-1.103.21 0 .49.046.703.095v-2.898c-.611-.07-1.173-.142-1.918-.142-2.501.001-3.929 1.052-3.929 3.927m-40.373 4.607c0-2.594-2.359-3.573-4.63-3.573-2.148 0-4.254.932-4.673 3.246l3.294.679c.041-.686.332-1.541 1.241-1.541.654 0 .98.465.98 1.165v1.009c-2.502.29-5.95 1.192-6.033 4.246-.058 2.157 1.381 3.433 3.269 3.433 1.117 0 2.235-.617 2.881-1.298.023.195.048.749.119 1.073h3.904c-.143-.16-.353-.561-.353-1.893zm-3.787 5.448c-.322.424-.784.729-1.215.729-.679 0-1.099-.426-1.099-1.244 0-1.497.99-2 2.313-2.127zm13.074-9.023c-1.477 0-2.52.684-3.3 1.479h-.049l-.019-1.2h-3.706v11.733h3.787v-8.391c.346-.443.806-.729 1.232-.729.633 0 .873.371.873 1.04v8.078h3.787v-9.28c.001-1.609-.947-2.73-2.605-2.73m15.344.278h-3.766l-2.786 3.546h-.046v-8.454h-3.789v16.641h3.789v-4.202l.796-.916h.046l1.846 5.118h3.928l-3.186-8.121zm-38.488 3.078v-.13c1.206-.471 2.716-1.616 2.716-3.791 0-2.298-1.938-4.066-4.886-4.066h-6.579v16.643h6.411c3.16 0 5.449-1.604 5.449-4.452 0-2.133-1.308-3.61-3.111-4.204m-4.661-5.041h1.473c.956 0 2.027.257 2.027 1.845 0 .984-.601 1.801-2.122 1.801h-1.378zm1.543 10.613h-1.543v-4.162h1.543c1.356 0 2.122.819 2.122 2.058 0 1.705-1.212 2.104-2.122 2.104m143.734 1.193v-6.546c0-2.594-2.357-3.573-4.627-3.573-2.15 0-4.256.932-4.676 3.246l3.297.679c.039-.686.328-1.541 1.24-1.541.65 0 .981.465.981 1.165v1.009c-2.505.29-5.956 1.192-6.037 4.246-.058 2.157 1.38 3.433 3.271 3.433 1.117 0 2.232-.617 2.883-1.298.02.195.046.749.115 1.073h3.902c-.137-.162-.349-.561-.349-1.893m-3.783-1.098c-.327.424-.787.729-1.217.729-.68 0-1.1-.426-1.1-1.244 0-1.497.99-2 2.315-2.127zm-37.504-9.054c-3.484 0-5.216 2.805-5.216 6.125 0 3.249 1.637 6.172 5.26 6.172a4.839 4.839 0 0 0 4.702-3.204l-2.553-.936c-.188.945-.959 1.611-1.873 1.611-1.524 0-1.801-1.734-1.75-2.779h6.338v-.795c0-3.061-1.261-6.194-4.908-6.194m1.401 4.743h-2.83c-.058-1.104.328-2.359 1.404-2.359 1.308 0 1.463 1.272 1.426 2.359m13.72-4.433h3.785v11.733h-3.785zm0-4.91h3.785v3.366h-3.785zm10.903 6.984c.61 0 .912.328 1.098.793.166.445.188 1.006.188 1.475h3.229c0-1.169-.609-4.65-4.627-4.65-3.577 0-5.352 3.203-5.352 6.404 0 2.897 1.773 5.892 5.188 5.892 2.759 0 4.395-1.495 4.677-4.347l-2.946-.422c0 .889-.117 2.24-1.451 2.24-.979 0-1.4-.861-1.4-3.505-.007-2.337.136-3.88 1.396-3.88m-58.693-6.983-3.903 16.642h3.646l.726-3.364h3.857l.655 3.364h4.091l-3.556-16.642zm1.054 10.332 1.406-6.78h.084l1.197 6.78zm41.848-3.835h-.063l-.038-1.589h-3.665v11.733h3.791v-7.598c.444-.529 1.11-.908 2.077-.908.652 0 1.113.158 1.544.324v-3.83c-1.461.001-2.874.629-3.646 1.868m-19.736-1.867c-1.586 0-2.717.854-3.379 1.569h-.049c-.358-.905-1.126-1.569-2.277-1.569-1.411 0-2.598.729-3.39 1.475h-.048l-.02-1.195h-3.696v11.733h3.716v-8.368c.319-.432.888-.723 1.285-.723.703 0 .889.42.889 1.052v8.039h3.718v-8.368c.246-.324.787-.723 1.295-.723.689 0 .881.42.881 1.052v8.039h3.715v-9.354c0-1.62-1.066-2.659-2.64-2.659m74.071-7.266a85.131 85.131 0 0 1 4.453 1.908 98.68 98.68 0 0 0 -13.479 6.71 84.694 84.694 0 0 0 -4.432-2.161 93.276 93.276 0 0 1 13.458-6.457m-5.557-1.963a77.11 77.11 0 0 0 -13.935 5.979c1.41.51 2.808 1.053 4.185 1.634a79.48 79.48 0 0 1 13.522-6.328 84.976 84.976 0 0 0 -3.772-1.285" fill="#0067b1"/><g fill="#e31836"><path d="m182.766 6.106a82.16 82.16 0 0 0 -11.826-4.631c-1.43.412-2.848.861-4.252 1.35a82.215 82.215 0 0 1 12.174 4.685 95.177 95.177 0 0 1 3.904-1.404m6.213-1.852a89.377 89.377 0 0 0 -12.043-4.254 84.89 84.89 0 0 0 -3.91.906 81.995 81.995 0 0 1 11.9 4.507 97.134 97.134 0 0 1 4.053-1.159m9.975 3.351a105.103 105.103 0 0 0 -27.218 13.863 98.5 98.5 0 0 1 6.061 4.044 110.259 110.259 0 0 1 25.809-15.273 91.775 91.775 0 0 0 -4.652-2.634m-6.722-3.194a95.402 95.402 0 0 0 -28.332 12.737 93.642 93.642 0 0 1 5.713 3.059 98.787 98.787 0 0 1 27.803-13.395 90.645 90.645 0 0 0 -5.184-2.401m-11.246 20.054c0-.585.492-1.061 1.097-1.061s1.097.476 1.097 1.061c0 .596-.492 1.072-1.097 1.072s-1.097-.476-1.097-1.072m.207 0c0 .487.396.862.89.862.489 0 .886-.375.886-.862 0-.471-.396-.85-.886-.85-.493 0-.89.379-.89.85"/><path d="m182.629 25.064h-.205l-.352-.549h-.217v.549h-.18v-1.191h.534a.6.6 0 0 1 .302.059.3.3 0 0 1 .135.258c0 .232-.17.32-.387.326zm-.57-.695c.17 0 .405.029.405-.184 0-.155-.136-.176-.29-.176h-.316v.358z"/></g></svg>